<svg width="24" height="24" viewBox="0 0 16 11" fill="none" xmlns="http://www.w3.org/2000/svg">
    <g clip-path="url(#clip0_103_168)">
        <path fill-rule="evenodd" clip-rule="evenodd" d="M0.88 0C0.393994 0 0 0.342008 0 0.763889C0 1.18577 0.393994 1.52778 0.88 1.52778H14.96C15.446 1.52778 15.84 1.18577 15.84 0.763889C15.84 0.342008 15.446 0 14.96 0H0.88ZM0 5.34722C0 4.92533 0.393994 4.58333 0.88 4.58333H14.96C15.446 4.58333 15.84 4.92533 15.84 5.34722C15.84 5.76912 15.446 6.11111 14.96 6.11111H0.88C0.393994 6.11111 0 5.76912 0 5.34722ZM0 9.93056C0 9.50866 0.393994 9.16667 0.88 9.16667H14.96C15.446 9.16667 15.84 9.50866 15.84 9.93056C15.84 10.3525 15.446 10.6944 14.96 10.6944H0.88C0.393994 10.6944 0 10.3525 0 9.93056Z" fill="#252525"/>
    </g>
    <defs>
        <clipPath id="clip0_103_168">
            <rect width="16" height="11" fill="white"/>
        </clipPath>
    </defs>
</svg>
