<svg width="24" height="24" viewBox="0 0 17 17" fill="none" xmlns="http://www.w3.org/2000/svg">
    <g clip-path="url(#clip0_120_67)">
        <path d="M11.6333 11.5466L12.0249 11.1344L11.0898 10.2463L10.6982 10.6585L11.6333 11.5466ZM13.3134 10.9608L14.9559 11.9063L15.5992 10.7886L13.9567 9.84317L13.3134 10.9608ZM15.2729 13.8664L14.0515 15.1522L14.9866 16.0403L16.2079 14.7545L15.2729 13.8664ZM13.3167 15.5642C12.083 15.686 8.8639 15.5821 5.36982 11.9034L4.43479 12.7915C8.24283 16.8007 11.8754 17.0023 13.4434 16.8476L13.3167 15.5642ZM5.36982 11.9034C2.03739 8.39495 1.47841 5.43555 1.40874 4.13751L0.120997 4.20662C0.206325 5.79646 0.881371 9.0505 4.43479 12.7915L5.36982 11.9034ZM6.55225 6.1973L6.79883 5.93769L5.8638 5.04956L5.61722 5.30917L6.55225 6.1973ZM6.99252 2.70552L5.90844 1.17219L4.85545 1.9167L5.93956 3.45001L6.99252 2.70552ZM2.23911 0.841626L0.889676 2.26233L1.8247 3.15045L3.17414 1.72976L2.23911 0.841626ZM6.08473 5.75323C5.61722 5.30917 5.61662 5.30979 5.61602 5.31042C5.61582 5.31065 5.61521 5.31128 5.61481 5.31171C5.61399 5.31259 5.61316 5.31347 5.61232 5.31439C5.61062 5.31621 5.60887 5.31811 5.60706 5.32009C5.60346 5.32406 5.59964 5.32835 5.59561 5.33297C5.58757 5.34222 5.57874 5.3528 5.56929 5.36474C5.55039 5.38862 5.52901 5.41797 5.50658 5.45302C5.46161 5.52331 5.41282 5.61588 5.37151 5.73196C5.28752 5.96801 5.24175 6.28061 5.29894 6.67099C5.41132 7.43798 5.91389 8.46941 7.22697 9.85186L8.16202 8.96375C6.93466 7.67149 6.6323 6.87563 6.57492 6.48403C6.54723 6.29511 6.57536 6.19556 6.58649 6.1643C6.59274 6.14673 6.59683 6.14184 6.59282 6.1481C6.59089 6.15113 6.58702 6.15682 6.58052 6.16504C6.57726 6.16915 6.57335 6.17389 6.56867 6.17928C6.56634 6.18196 6.5638 6.1848 6.56107 6.18781C6.55971 6.18932 6.55829 6.19086 6.55682 6.19244C6.55609 6.19323 6.55534 6.19403 6.55457 6.19484C6.5542 6.19524 6.55361 6.19586 6.55342 6.19606C6.55284 6.19668 6.55225 6.1973 6.08473 5.75323ZM7.22697 9.85186C8.53626 11.2303 9.52504 11.7722 10.2795 11.8947C10.6666 11.9575 10.98 11.9073 11.2172 11.8138C11.3332 11.768 11.425 11.7143 11.4938 11.6655C11.5282 11.641 11.5568 11.6179 11.5799 11.5977C11.5915 11.5876 11.6016 11.5781 11.6105 11.5695C11.615 11.5653 11.6191 11.5612 11.6229 11.5574C11.6248 11.5555 11.6266 11.5536 11.6283 11.5518C11.6291 11.5509 11.63 11.5501 11.6309 11.5492C11.6313 11.5488 11.6319 11.5481 11.6321 11.5479C11.6327 11.5472 11.6333 11.5466 11.1658 11.1026C10.6982 10.6585 10.6988 10.6579 10.6994 10.6573C10.6996 10.6571 10.7002 10.6565 10.7006 10.656C10.7013 10.6553 10.7021 10.6545 10.7029 10.6537C10.7044 10.6522 10.7059 10.6506 10.7073 10.6492C10.7102 10.6463 10.7129 10.6436 10.7155 10.6411C10.7207 10.6361 10.7254 10.6318 10.7295 10.6282C10.7377 10.621 10.7438 10.6163 10.7477 10.6136C10.7558 10.6078 10.755 10.6098 10.7441 10.6141C10.7275 10.6206 10.6493 10.6482 10.4862 10.6217C10.1401 10.5655 9.39333 10.2601 8.16202 8.96375L7.22697 9.85186ZM5.90844 1.17219C5.03703 -0.0603023 3.2933 -0.268237 2.23911 0.841626L3.17414 1.72976C3.62364 1.25652 4.41497 1.29369 4.85545 1.9167L5.90844 1.17219ZM1.40874 4.13751C1.39032 3.79421 1.5398 3.45041 1.8247 3.15045L0.889676 2.26233C0.428988 2.74734 0.0788357 3.42111 0.120997 4.20662L1.40874 4.13751ZM14.0515 15.1522C13.8117 15.4048 13.5607 15.5401 13.3167 15.5642L13.4434 16.8476C14.0857 16.7841 14.6055 16.4416 14.9866 16.0403L14.0515 15.1522ZM6.79883 5.93769C7.6307 5.0619 7.68959 3.69134 6.99252 2.70552L5.93956 3.45001C6.30249 3.96333 6.24684 4.64629 5.8638 5.04956L6.79883 5.93769ZM14.9559 11.9063C15.6616 12.3125 15.7997 13.3118 15.2729 13.8664L16.2079 14.7545C17.3298 13.5733 17.0031 11.5967 15.5992 10.7886L14.9559 11.9063ZM12.0249 11.1344C12.3562 10.7855 12.8726 10.7071 13.3134 10.9608L13.9567 9.84317C13.0123 9.29956 11.841 9.45543 11.0898 10.2463L12.0249 11.1344Z" fill="#FEFEFE"/>
    </g>
    <defs>
        <clipPath id="clip0_120_67">
            <rect width="17" height="17" fill="white"/>
        </clipPath>
    </defs>
</svg>
