<svg width="24" height="24" viewBox="0 0 25 25" fill="none" xmlns="http://www.w3.org/2000/svg">
    <g clip-path="url(#clip0_95_215)">
        <path d="M14.1328 23.2334L14.7466 22.1964L13.285 21.3313L12.6712 22.3683L14.1328 23.2334ZM9.59668 22.1964L10.2105 23.2334L11.672 22.3683L11.0582 21.3313L9.59668 22.1964ZM12.6712 22.3683C12.453 22.737 11.8903 22.737 11.672 22.3683L10.2105 23.2334C11.0864 24.7132 13.2569 24.7132 14.1328 23.2334L12.6712 22.3683ZM10.4733 1.69837H13.87V2.33302e-07H10.4733V1.69837ZM22.6449 10.4733V11.6055H24.3433V10.4733H22.6449ZM1.69837 11.6055V10.4733H2.33302e-07V11.6055H1.69837ZM2.33302e-07 11.6055C2.33302e-07 12.9128 -0.000464026 13.9358 0.0558313 14.7609C0.112659 15.5936 0.230107 16.2867 0.495573 16.9275L2.06466 16.2776C1.8992 15.8782 1.80119 15.3915 1.75027 14.6453C1.69883 13.8914 1.69837 12.936 1.69837 11.6055H2.33302e-07ZM7.41904 19.2387C5.99758 19.2141 5.25275 19.1238 4.66892 18.8819L4.01899 20.451C4.93041 20.8285 5.9685 20.9123 7.38979 20.9367L7.41904 19.2387ZM0.495573 16.9275C1.15634 18.5228 2.42375 19.7902 4.01899 20.451L4.66892 18.8819C3.48983 18.3935 2.55306 17.4567 2.06466 16.2776L0.495573 16.9275ZM22.6449 11.6055C22.6449 12.936 22.6445 13.8914 22.5931 14.6453C22.5421 15.3915 22.4441 15.8782 22.2786 16.2776L23.8477 16.9275C24.1132 16.2867 24.2306 15.5936 24.2875 14.7609C24.3437 13.9358 24.3433 12.9128 24.3433 11.6055H22.6449ZM16.9535 20.9367C18.3748 20.9123 19.4129 20.8285 20.3243 20.451L19.6744 18.8819C19.0906 19.1238 18.3457 19.2141 16.9243 19.2387L16.9535 20.9367ZM22.2786 16.2776C21.7902 17.4567 20.8535 18.3935 19.6744 18.8819L20.3243 20.451C21.9195 19.7902 23.1869 18.5228 23.8477 16.9275L22.2786 16.2776ZM13.87 1.69837C15.7396 1.69837 17.0822 1.69926 18.1294 1.79883C19.1641 1.8972 19.8223 2.08586 20.3471 2.40747L21.2346 0.959375C20.398 0.446751 19.449 0.218286 18.2902 0.108096C17.1439 -0.000894293 15.7067 2.33302e-07 13.87 2.33302e-07V1.69837ZM24.3433 10.4733C24.3433 8.63656 24.3442 7.19939 24.2352 6.05311C24.125 4.8942 23.8965 3.94526 23.3839 3.10873L21.9358 3.99613C22.2575 4.52096 22.4461 5.17928 22.5445 6.21387C22.644 7.2611 22.6449 8.60367 22.6449 10.4733H24.3433ZM20.3471 2.40747C20.9947 2.80426 21.5391 3.34864 21.9358 3.99613L23.3839 3.10873C22.8471 2.23272 22.1106 1.4962 21.2346 0.959375L20.3471 2.40747ZM10.4733 2.33302e-07C8.63656 2.33302e-07 7.19939 -0.000894293 6.05311 0.108096C4.8942 0.218286 3.94526 0.446751 3.10873 0.959375L3.99613 2.40747C4.52096 2.08586 5.17928 1.8972 6.21387 1.79883C7.2611 1.69926 8.60367 1.69837 10.4733 1.69837V2.33302e-07ZM1.69837 10.4733C1.69837 8.60367 1.69926 7.2611 1.79883 6.21387C1.8972 5.17928 2.08586 4.52096 2.40747 3.99613L0.959375 3.10873C0.446751 3.94526 0.218286 4.8942 0.108096 6.05311C-0.000894286 7.19939 2.33302e-07 8.63656 2.33302e-07 10.4733H1.69837ZM3.10873 0.959375C2.23272 1.4962 1.4962 2.23272 0.959375 3.10873L2.40747 3.99613C2.80426 3.34864 3.34864 2.80426 3.99613 2.40747L3.10873 0.959375ZM11.0582 21.3313C10.8284 20.9429 10.6266 20.6002 10.4304 20.331C10.2236 20.0474 9.98664 19.7921 9.6579 19.6009L8.80403 21.0691C8.85771 21.1002 8.93084 21.1572 9.0578 21.3313C9.19522 21.5199 9.35049 21.7805 9.59668 22.1964L11.0582 21.3313ZM7.38979 20.9367C7.88694 20.9453 8.20185 20.9517 8.44189 20.9781C8.6662 21.0031 8.75315 21.0394 8.80403 21.0691L9.6579 19.6009C9.32643 19.4081 8.9815 19.3291 8.62881 19.2901C8.29188 19.2528 7.88468 19.2467 7.41904 19.2387L7.38979 20.9367ZM14.7466 22.1964C14.9928 21.7805 15.148 21.5199 15.2854 21.3313C15.4124 21.1572 15.4855 21.1002 15.5392 21.0691L14.6853 19.6009C14.3567 19.7921 14.1196 20.0474 13.9129 20.331C13.7167 20.6002 13.5149 20.9429 13.285 21.3313L14.7466 22.1964ZM16.9243 19.2387C16.4586 19.2467 16.0514 19.2528 15.7144 19.2901C15.3618 19.3291 15.0169 19.4081 14.6853 19.6009L15.5392 21.0691C15.5901 21.0394 15.6771 21.0031 15.9014 20.9781C16.1414 20.9517 16.4563 20.9453 16.9535 20.9367L16.9243 19.2387Z" fill="#9A9C9D"/>
        <path d="M7.97101 9.10327H17.029" stroke="#9A9C9D" stroke-width="2" stroke-linecap="round"/>
        <path d="M7.97101 13.0661H14.1984" stroke="#9A9C9D" stroke-width="2" stroke-linecap="round"/>
    </g>
    <defs>
        <clipPath id="clip0_95_215">
            <rect width="25" height="25" fill="white"/>
        </clipPath>
    </defs>
</svg>
