<svg width="24" height="24" viewBox="0 0 18 26" fill="none" xmlns="http://www.w3.org/2000/svg">
    <path fill-rule="evenodd" clip-rule="evenodd" d="M7.5 0.8125H7.45988C6.44381 0.812488 5.6243 0.812488 4.96066 0.8667C4.27737 0.922538 3.67719 1.04049 3.12193 1.32341C2.23991 1.77281 1.52281 2.48991 1.07341 3.37193C0.790488 3.92719 0.672538 4.52738 0.616701 5.21066C0.562488 5.8743 0.562488 6.69383 0.5625 7.70988V7.75V18.25V18.2901C0.562488 19.3061 0.562488 20.1258 0.616701 20.7894C0.672538 21.4726 0.790488 22.0728 1.07341 22.6281C1.52281 23.5101 2.23991 24.2271 3.12193 24.6766C3.67719 24.9595 4.27737 25.0775 4.96066 25.1333C5.6243 25.1875 6.44381 25.1875 7.45988 25.1875H7.5H10.5H10.5401C11.5562 25.1875 12.3757 25.1875 13.0394 25.1333C13.7226 25.0775 14.3227 24.9595 14.8781 24.6766C15.7601 24.2271 16.4771 23.5101 16.9266 22.6281C17.2095 22.0728 17.3275 21.4726 17.3832 20.7894C17.4375 20.1258 17.4375 19.3062 17.4375 18.2901V18.25V7.75V7.70985C17.4375 6.69381 17.4375 5.8743 17.3832 5.21066C17.3275 4.52738 17.2095 3.92719 16.9266 3.37193C16.4771 2.48991 15.7601 1.77281 14.8781 1.32341C14.3227 1.04049 13.7226 0.922538 13.0394 0.8667C12.3757 0.812488 11.5562 0.812488 10.5401 0.8125H10.5H7.5ZM3.97315 2.99405C4.22005 2.86825 4.546 2.78184 5.11335 2.73548C5.69164 2.68823 6.43444 2.6875 7.5 2.6875H10.5C11.5656 2.6875 12.3084 2.68823 12.8866 2.73548C13.454 2.78184 13.78 2.86825 14.0269 2.99405C14.556 3.26369 14.9862 3.69395 15.256 4.22315C15.3817 4.47005 15.4681 4.79601 15.5145 5.36335C15.5617 5.94164 15.5625 6.68444 15.5625 7.75V18.25C15.5625 19.3156 15.5617 20.0584 15.5145 20.6366C15.4681 21.204 15.3817 21.53 15.256 21.7769C14.9862 22.306 14.556 22.7363 14.0269 23.006C13.78 23.1318 13.454 23.2181 12.8866 23.2645C12.3084 23.3117 11.5656 23.3125 10.5 23.3125H7.5C6.43444 23.3125 5.69164 23.3117 5.11335 23.2645C4.546 23.2181 4.22005 23.1318 3.97315 23.006C3.44395 22.7363 3.01369 22.306 2.74405 21.7769C2.61825 21.53 2.53184 21.204 2.48548 20.6366C2.43823 20.0584 2.4375 19.3156 2.4375 18.25V7.75C2.4375 6.68444 2.43823 5.94164 2.48548 5.36335C2.53184 4.79601 2.61825 4.47005 2.74405 4.22315C3.01369 3.69395 3.44395 3.26369 3.97315 2.99405ZM6.5 19.5625C5.98224 19.5625 5.5625 19.9823 5.5625 20.5C5.5625 21.0177 5.98224 21.4375 6.5 21.4375H11.5C12.0177 21.4375 12.4375 21.0177 12.4375 20.5C12.4375 19.9823 12.0177 19.5625 11.5 19.5625H6.5Z" fill="#9A9C9D"/>
</svg>
