<svg width="24" height="24" viewBox="0 0 20 20" fill="none" xmlns="http://www.w3.org/2000/svg">
    <g clip-path="url(#clip0_33_50)">
        <path d="M13.6338 16.1078C13.6338 17.4741 14.7414 18.5817 16.1078 18.5817C17.4741 18.5817 18.5817 17.4741 18.5817 16.1078C18.5817 14.7415 17.4741 13.6338 16.1078 13.6338M13.6338 16.1078C13.6338 14.7415 14.7414 13.6338 16.1078 13.6338M13.6338 16.1078H5.71714M16.1078 13.6338V5.71715M5.71714 16.1078C5.71714 17.4741 4.60951 18.5817 3.24318 18.5817C1.87686 18.5817 0.769226 17.4741 0.769226 16.1078C0.769226 14.7415 1.87686 13.6338 3.24318 13.6338M5.71714 16.1078C5.71714 14.7415 4.60951 13.6338 3.24318 13.6338M16.1078 5.71715C14.7414 5.71715 13.6338 4.60952 13.6338 3.24319M16.1078 5.71715C17.4741 5.71715 18.5817 4.60952 18.5817 3.24319C18.5817 1.87686 17.4741 0.769234 16.1078 0.769234C14.7414 0.769234 13.6338 1.87686 13.6338 3.24319M3.24318 13.6338V5.71715M3.24318 5.71715C1.87686 5.71715 0.769226 4.60952 0.769226 3.24319C0.769226 1.87686 1.87686 0.769234 3.24318 0.769234C4.60951 0.769234 5.71714 1.87686 5.71714 3.24319M3.24318 5.71715C4.60951 5.71715 5.71714 4.60952 5.71714 3.24319M5.71714 3.24319H13.6338" stroke="#252525" stroke-width="1.5" stroke-linecap="round" stroke-linejoin="round"/>
    </g>
    <defs>
        <clipPath id="clip0_33_50">
            <rect width="20" height="20" fill="white"/>
        </clipPath>
    </defs>
</svg>
