<svg width="24" height="24" viewBox="0 0 25 25" fill="none" xmlns="http://www.w3.org/2000/svg">
    <path d="M3 10.5V21C3 21.1785 3.52612 22.0474 4.5 22.5C5.5885 23.0059 7.17634 23.0857 8 23C8.26051 22.972 9.5 22.5 9 22.5V22L9.5 18L10.5 16.5L12 16H14L15 17.5L16 23L20 22.5L21.5 21.5L22 11L13 3H12L3 10.5Z" fill="#4CBCD1"/>
    <path d="M3 10.5L2.67991 10.1159L2.5 10.2658V10.5H3ZM12 3V2.5H11.819L11.6799 2.61589L12 3ZM13 3L13.3322 2.6263L13.1901 2.5H13V3ZM22 11L22.4994 11.0238L22.5108 10.7851L22.3322 10.6263L22 11ZM21.5 21.5L21.7773 21.916L21.9874 21.776L21.9994 21.5238L21.5 21.5ZM20 22.5L20.062 22.9961L20.1791 22.9815L20.2773 22.916L20 22.5ZM16 23L15.5081 23.0894L15.5927 23.5548L16.062 23.4961L16 23ZM15 17.5L15.4919 17.4106L15.4734 17.3087L15.416 17.2226L15 17.5ZM14 16L14.416 15.7226L14.2676 15.5H14V16ZM10.5 16.5L10.3419 16.0257L10.1791 16.0799L10.084 16.2226L10.5 16.5ZM9.5 18L9.08397 17.7226L9.0185 17.8209L9.00386 17.938L9.5 18ZM9 22L8.50386 21.938L8.5 21.9689V22H9ZM9 22.5H8.5C8.5 22.7761 8.72386 23 9 23V22.5ZM8 23L8.05176 23.4973L8.05344 23.4971L8 23ZM12 16V15.5H11.9189L11.8419 15.5257L12 16ZM4.5 22.5L4.28926 22.9534H4.28926L4.5 22.5ZM3.5 21V10.5H2.5V21H3.5ZM3.32009 10.8841L12.3201 3.38411L11.6799 2.61589L2.67991 10.1159L3.32009 10.8841ZM12 3.5H13V2.5H12V3.5ZM12.6678 3.3737L21.6678 11.3737L22.3322 10.6263L13.3322 2.6263L12.6678 3.3737ZM21.5006 10.9762L21.0006 21.4762L21.9994 21.5238L22.4994 11.0238L21.5006 10.9762ZM21.2227 21.084L19.7227 22.084L20.2773 22.916L21.7773 21.916L21.2227 21.084ZM19.938 22.0039L15.938 22.5039L16.062 23.4961L20.062 22.9961L19.938 22.0039ZM16.4919 22.9106L15.4919 17.4106L14.5081 17.5894L15.5081 23.0894L16.4919 22.9106ZM15.416 17.2226L14.416 15.7226L13.584 16.2774L14.584 17.7774L15.416 17.2226ZM10.084 16.2226L9.08397 17.7226L9.91603 18.2774L10.916 16.7774L10.084 16.2226ZM9.00386 17.938L8.50386 21.938L9.49614 22.062L9.99614 18.062L9.00386 17.938ZM8.5 22V22.5H9.5V22H8.5ZM9 23C9.01567 23 9.00568 23.0012 8.98116 22.9966C8.97494 22.9954 8.8661 22.9784 8.76433 22.8804C8.70298 22.8213 8.646 22.7336 8.62542 22.6206C8.60564 22.5119 8.62692 22.4207 8.65017 22.3613C8.6902 22.2592 8.75344 22.2056 8.75798 22.2015C8.77994 22.1819 8.78285 22.185 8.73676 22.2096C8.69969 22.2294 8.64867 22.2537 8.58612 22.2808C8.46136 22.335 8.31161 22.3914 8.1788 22.4356C8.11264 22.4576 8.05432 22.4753 8.00819 22.4877C7.9556 22.5019 7.93867 22.5037 7.94656 22.5029L8.05344 23.4971C8.1793 23.4836 8.35378 23.4312 8.49413 23.3846C8.65137 23.3323 8.82908 23.2655 8.98426 23.1982C9.06168 23.1646 9.13875 23.1285 9.20726 23.092C9.26676 23.0603 9.35274 23.0112 9.42466 22.9469C9.45418 22.9205 9.53413 22.8464 9.58124 22.7262C9.60804 22.6578 9.63046 22.558 9.60926 22.4415C9.58726 22.3207 9.52629 22.2259 9.45821 22.1603C9.34299 22.0493 9.20977 22.0221 9.1669 22.014C9.10573 22.0024 9.04683 22 9 22V23ZM14 15.5H12V16.5H14V15.5ZM11.8419 15.5257L10.3419 16.0257L10.6581 16.9743L12.1581 16.4743L11.8419 15.5257ZM7.94824 22.5027C7.17515 22.5831 5.68768 22.5006 4.71074 22.0466L4.28926 22.9534C5.48932 23.5112 7.17754 23.5883 8.05176 23.4973L7.94824 22.5027ZM4.71074 22.0466C4.30162 21.8564 3.98167 21.5758 3.76477 21.3222C3.65662 21.1958 3.57939 21.0822 3.53219 20.9991C3.50835 20.9571 3.49559 20.9289 3.49028 20.9153C3.47942 20.8875 3.5 20.9258 3.5 21H2.5C2.5 21.1188 2.53702 21.2233 2.55874 21.279C2.586 21.3488 2.62195 21.4213 2.66266 21.493C2.74454 21.6371 2.8597 21.8025 3.00482 21.9722C3.29444 22.3108 3.72449 22.6909 4.28926 22.9534L4.71074 22.0466Z" fill="#4CBCD1"/>
    <path fill-rule="evenodd" clip-rule="evenodd" d="M12.7913 3.87061C12.6011 3.81521 12.399 3.81521 12.2087 3.87061C12.154 3.88656 12.0577 3.92645 11.8531 4.08142C11.6379 4.2444 11.3743 4.47765 10.9637 4.84266L5.50571 9.69416C4.83659 10.2889 4.64691 10.4683 4.51503 10.6667C4.38818 10.8575 4.29368 11.0679 4.23533 11.2895C4.17468 11.5199 4 11.7807 4 12.676V17.5C4 18.4073 3.99456 19.4095 4.03413 19.8859C4.07266 20.35 4.08084 20.5869 4.16666 20.752C4.36431 21.1325 4.61949 21.4428 5 21.6404C5.16518 21.7262 5.536 21.9615 6 22C6.47646 22.0396 7.09269 22 8 22H8.5V18.75C8.5 16.4488 10.1988 15 12.5 15C14.8012 15 16.5 16.4488 16.5 18.75V21.875H16.8438C17.7511 21.875 18.3679 21.8742 18.8443 21.8346C19.3083 21.796 19.5451 21.7262 19.7104 21.6404C20.0909 21.4428 20.4011 21.1325 20.5988 20.752C20.6846 20.5869 20.7544 20.35 20.793 19.8859C20.8324 19.4095 20.8334 18.7927 20.8334 17.8854V12.676C20.8334 11.7807 20.8254 11.5199 20.7646 11.2895C20.7063 11.0679 20.6118 10.8575 20.4849 10.6667C20.3531 10.4683 20.1634 10.2889 19.4943 9.69416L14.0363 4.84266C13.6257 4.47765 13.3621 4.2444 13.1469 4.08142C12.9422 3.92645 12.846 3.88656 12.7913 3.87061ZM11.6262 1.87037C12.1969 1.70418 12.8031 1.70418 13.3738 1.87037C13.7697 1.98569 14.0981 2.18848 14.4044 2.42044C14.693 2.6389 15.018 2.92774 15.3921 3.26036L20.8784 8.13707C20.908 8.16332 20.937 8.18921 20.9659 8.21477C21.5093 8.69729 21.9197 9.06182 22.2199 9.51329C22.4736 9.89495 22.6626 10.3158 22.7793 10.7591C22.9173 11.2833 22.9171 11.8323 22.9167 12.559C22.9167 12.5975 22.9167 12.6365 22.9167 12.676V17.9292C22.9167 18.7818 22.9167 19.4855 22.8691 20.0584C22.8197 20.6535 22.7136 21.2003 22.4475 21.7124C22.0522 22.4734 21.4317 23.0938 20.6708 23.4892C20.1586 23.7552 19.6119 23.8613 19.0167 23.9107C18.4438 23.9583 17.7401 23.9583 16.8874 23.9583H16.4636C16.4555 23.9583 16.4473 23.9583 16.439 23.9583C16.3129 23.9583 16.1622 23.9584 16.0295 23.9474C15.8757 23.9347 15.6555 23.9019 15.4256 23.7824C15.1401 23.6342 14.9074 23.4015 14.7592 23.1161C14.6398 22.8861 14.607 22.6659 14.5942 22.5121C14.5832 22.3795 14.5833 22.2287 14.5833 22.1026L14.5834 18.75C14.5834 17.5994 13.6506 16.6667 12.5 16.6667C11.3494 16.6667 10.4167 17.5994 10.4167 18.75L10.4167 22.1026C10.4167 22.2287 10.4168 22.3795 10.4058 22.5121C10.393 22.6659 10.3602 22.8861 10.2407 23.1161C10.0925 23.4015 9.85981 23.6342 9.57444 23.7824C9.34452 23.9019 9.1243 23.9347 8.97046 23.9474C8.83778 23.9584 8.68711 23.9583 8.56095 23.9583C8.55268 23.9583 8.5445 23.9583 8.53645 23.9583H8.11252C7.25987 23.9583 6.55618 23.9583 5.98325 23.9107C5.38809 23.8613 4.84139 23.7552 4.32926 23.4892C3.56825 23.0938 2.94775 22.4734 2.55244 21.7124C2.28642 21.2003 2.1803 20.6535 2.13088 20.0584C2.0833 19.4855 2.08331 18.7818 2.08332 17.9292V12.676C2.08332 12.6365 2.0833 12.5975 2.08329 12.559C2.08291 11.8323 2.08263 11.2833 2.22067 10.7591C2.33736 10.3158 2.52638 9.89495 2.78008 9.51329C3.08021 9.06182 3.49072 8.69729 4.03413 8.21478C4.06292 8.18921 4.09207 8.16332 4.12161 8.13707L9.6079 3.26037C9.98206 2.92774 10.307 2.6389 10.5956 2.42044C10.9019 2.18848 11.2302 1.98569 11.6262 1.87037Z" fill="#4CBCD1"/>
</svg>
