<svg width="24" height="24" viewBox="0 0 22 26" fill="none" xmlns="http://www.w3.org/2000/svg">
    <path d="M11 16.0556V18.5M5.375 10.5908C5.90535 10.5556 6.55916 10.5556 7.4 10.5556H14.6C15.4408 10.5556 16.0947 10.5556 16.625 10.5908M5.375 10.5908C4.71314 10.6346 4.24358 10.7334 3.84278 10.9552C3.20773 11.3067 2.69143 11.8676 2.36785 12.5576C2 13.342 2 14.3686 2 16.4222V18.1333C2 20.1869 2 21.2136 2.36785 21.998C2.69143 22.6879 3.20773 23.2488 3.84278 23.6003C4.56473 24 5.50982 24 7.4 24H14.6C16.4902 24 17.4352 24 18.1572 23.6003C18.7923 23.2488 19.3086 22.6879 19.6321 21.998C20 21.2136 20 20.1869 20 18.1333V16.4222C20 14.3686 20 13.342 19.6321 12.5576C19.3086 11.8676 18.7923 11.3067 18.1572 10.9552C17.7564 10.7334 17.2868 10.6346 16.625 10.5908M5.375 10.5908V8.11111C5.375 4.73604 7.8934 2 11 2C14.1066 2 16.625 4.73604 16.625 8.11111V10.5908" stroke="#4CBCD1" stroke-width="2.5" stroke-linecap="round" stroke-linejoin="round"/>
</svg>
