<svg width="24" height="24" viewBox="0 0 22 22" fill="none" xmlns="http://www.w3.org/2000/svg">
    <g clip-path="url(#clip0_120_12)">
        <path d="M10.75 14.4062L14.4062 10.75M14.4062 10.75L10.75 7.09375M14.4062 10.75H1M1 4.95852V4.90024C1 3.53511 1 2.85204 1.26568 2.33063C1.49936 1.87198 1.87198 1.49936 2.33063 1.26568C2.85204 1 3.53511 1 4.90024 1H16.6002C17.9654 1 18.647 1 19.1684 1.26568C19.627 1.49936 20.0009 1.87198 20.2346 2.33063C20.5 2.85153 20.5 3.53377 20.5 4.89623V16.6044C20.5 17.9668 20.5 18.6481 20.2346 19.169C20.0009 19.6276 19.627 20.0009 19.1684 20.2346C18.6475 20.5 17.9662 20.5 16.6038 20.5H4.89623C3.53377 20.5 2.85153 20.5 2.33063 20.2346C1.87198 20.0009 1.49936 19.6273 1.26568 19.1686C1 18.6473 1 17.9651 1 16.6V16.5391" stroke="#FA7463" stroke-width="2" stroke-linecap="round" stroke-linejoin="round"/>
    </g>
    <defs>
        <clipPath id="clip0_120_12">
            <rect width="22" height="22" fill="white"/>
        </clipPath>
    </defs>
</svg>
