<svg width="24" height="24" viewBox="0 0 19 18" fill="none" xmlns="http://www.w3.org/2000/svg">
    <g clip-path="url(#clip0_107_432)">
        <path fill-rule="evenodd" clip-rule="evenodd" d="M15.1254 0.670072C15.176 0.686644 15.2272 0.703433 15.2791 0.720429L16.4328 1.09813C16.8774 1.24362 17.2669 1.37115 17.576 1.51237C17.9101 1.66504 18.2164 1.86169 18.4505 2.18069C18.6846 2.49968 18.7777 2.84718 18.8195 3.2068C18.8582 3.53945 18.8581 3.94277 18.8581 4.40294V12.1446C18.8581 12.803 18.8581 13.3583 18.8062 13.7972C18.7522 14.2533 18.6312 14.7041 18.2928 15.0678C18.0921 15.2836 17.8482 15.4562 17.5764 15.575C17.1181 15.7753 16.6443 15.7454 16.1867 15.6515C15.7462 15.5611 15.2099 15.3855 14.574 15.1774L14.533 15.1639C13.4576 14.8118 13.089 14.7022 12.7312 14.7141C12.5886 14.7189 12.4469 14.7375 12.3081 14.7697C11.9597 14.8506 11.6335 15.0517 10.6902 15.6693L9.3634 16.5381C9.3179 16.5679 9.27298 16.5973 9.22864 16.6264C8.2098 17.2943 7.50121 17.7587 6.67284 17.8677C5.84446 17.9767 5.03639 17.7117 3.8745 17.3306C3.82398 17.314 3.77278 17.2972 3.7209 17.2802L2.56712 16.9025C2.12263 16.757 1.73305 16.6295 1.42396 16.4883C1.08981 16.3356 0.783585 16.139 0.549487 15.82C0.315381 15.501 0.22227 15.1535 0.18047 14.7939C0.141799 14.4612 0.141818 14.0578 0.141847 13.5977V5.85602C0.141828 5.19763 0.141809 4.64236 0.193773 4.2034C0.247762 3.74735 0.368794 3.2965 0.707136 2.93282C0.907841 2.71709 1.15177 2.54442 1.42361 2.42564C1.88191 2.2254 2.35567 2.2552 2.81326 2.34911C3.25371 2.4395 3.79005 2.61511 4.42601 2.82333L4.46692 2.83673C5.54245 3.18883 5.91099 3.29853 6.26879 3.28653C6.41135 3.28175 6.55308 3.26311 6.69188 3.23088C7.04029 3.15 7.36646 2.94894 8.30972 2.33129L9.63656 1.46256C9.68205 1.43276 9.72697 1.40333 9.77131 1.37429C10.7902 0.706383 11.4988 0.241868 12.3271 0.132915C13.1555 0.0239627 13.9636 0.289001 15.1254 0.670072ZM13.0993 1.55843V13.317C13.6134 13.3718 14.1549 13.5493 14.8683 13.7832C14.9077 13.7961 14.9478 13.8092 14.9884 13.8225C15.6762 14.0477 16.1325 14.1959 16.4811 14.2674C16.8221 14.3374 16.939 14.3059 16.9912 14.2831C17.0818 14.2435 17.1631 14.186 17.23 14.114C17.2685 14.0726 17.3359 13.9737 17.3761 13.6339C17.4172 13.2865 17.4184 12.8144 17.4184 12.1023V4.43999C17.4184 3.93184 17.4173 3.61009 17.3891 3.36718C17.3629 3.14235 17.3202 3.05876 17.2825 3.00746C17.2449 2.95615 17.1777 2.88988 16.9687 2.79442C16.7431 2.6913 16.4326 2.58854 15.9417 2.42785L14.8237 2.06185C13.9731 1.78334 13.4683 1.62487 13.0993 1.55843ZM11.6595 13.487V1.86756C11.3609 2.03707 10.9778 2.28381 10.4352 2.63906L9.10838 3.50781C9.07277 3.5311 9.03773 3.5541 9.00308 3.57679C8.34245 4.00974 7.85007 4.33248 7.34041 4.51363V16.1331C7.6391 15.9635 8.02216 15.7168 8.56474 15.3616L9.89158 14.4928C9.92719 14.4695 9.96222 14.4465 9.99687 14.4239C10.6575 13.9909 11.1499 13.6682 11.6595 13.487ZM5.9007 16.4422V4.68364C5.38654 4.6289 4.84511 4.45139 4.1317 4.2175C4.09222 4.20456 4.05221 4.19144 4.01165 4.17815C3.3238 3.95297 2.8674 3.80476 2.51878 3.73321C2.17788 3.66325 2.06098 3.69476 2.00882 3.71755C1.9182 3.75714 1.8369 3.8147 1.76999 3.88661C1.73148 3.92801 1.66407 4.02696 1.62385 4.36671C1.58272 4.71416 1.58156 5.18628 1.58156 5.89837V13.5607C1.58156 14.0688 1.58265 14.3905 1.61088 14.6334C1.63703 14.8583 1.67979 14.9419 1.71744 14.9932C1.75509 15.0445 1.82231 15.1108 2.03122 15.2062C2.25692 15.3093 2.56737 15.4121 3.05821 15.5728L4.17617 15.9388C5.0269 16.2173 5.53162 16.3758 5.9007 16.4422Z" fill="#252525"/>
    </g>
    <defs>
        <clipPath id="clip0_107_432">
            <rect width="19" height="18" fill="white"/>
        </clipPath>
    </defs>
</svg>
