<svg width="88" height="103" viewBox="0 0 88 103" fill="none" xmlns="http://www.w3.org/2000/svg">
    <g filter="url(#filter0_d_14_21)">
        <g filter="url(#filter1_f_14_21)">
            <ellipse cx="44.5" cy="84.5" rx="20.5" ry="3.5" fill="#D9D9D9"/>
        </g>
        <path d="M73 43.9014C73 59.8632 61.2222 72.7254 43.5 84.5C25.7778 72.7254 15 59.8632 15 43.9014C15 27.9396 27.9837 15 44 15C60.0163 15 73 27.9396 73 43.9014Z" fill="#FEFEFE"/>
        <circle cx="44" cy="44" r="26" fill="#FA7463"/>
        <path d="M37.44 51L42.896 35.16H45.041L50.497 51H48.814L43.633 36.062H44.271L39.123 51H37.44ZM39.871 47.161V45.643H48.055V47.161H39.871Z" fill="#FEFEFE"/>
    </g>
    <defs>
        <filter id="filter0_d_14_21" x="0" y="0" width="88" height="103" filterUnits="userSpaceOnUse" color-interpolation-filters="sRGB">
            <feFlood flood-opacity="0" result="BackgroundImageFix"/>
            <feColorMatrix in="SourceAlpha" type="matrix" values="0 0 0 0 0 0 0 0 0 0 0 0 0 0 0 0 0 0 127 0" result="hardAlpha"/>
            <feOffset/>
            <feGaussianBlur stdDeviation="7.5"/>
            <feComposite in2="hardAlpha" operator="out"/>
            <feColorMatrix type="matrix" values="0 0 0 0 0.305833 0 0 0 0 0.305833 0 0 0 0 0.305833 0 0 0 0.15 0"/>
            <feBlend mode="normal" in2="BackgroundImageFix" result="effect1_dropShadow_14_21"/>
            <feBlend mode="normal" in="SourceGraphic" in2="effect1_dropShadow_14_21" result="shape"/>
        </filter>
        <filter id="filter1_f_14_21" x="20" y="77" width="49" height="15" filterUnits="userSpaceOnUse" color-interpolation-filters="sRGB">
            <feFlood flood-opacity="0" result="BackgroundImageFix"/>
            <feBlend mode="normal" in="SourceGraphic" in2="BackgroundImageFix" result="shape"/>
            <feGaussianBlur stdDeviation="2" result="effect1_foregroundBlur_14_21"/>
        </filter>
    </defs>
</svg>
