<svg width="24" height="24" viewBox="0 0 18 18" fill="none" xmlns="http://www.w3.org/2000/svg">
    <g clip-path="url(#clip0_107_430)">
        <path d="M11.2165 17.8714H11.0571C10.6172 17.8426 10.1999 17.6658 9.87314 17.3698C9.54636 17.0739 9.32926 16.6761 9.25712 16.2411L8.22854 10.3474C8.20472 10.2033 8.13636 10.0702 8.03305 9.96692C7.92975 9.86362 7.79668 9.79526 7.65254 9.77143L1.75883 8.74286C1.32681 8.66659 0.932491 8.44864 0.638081 8.1234C0.343672 7.79816 0.165937 7.38416 0.132922 6.9467C0.0999063 6.50925 0.21349 6.07325 0.45575 5.70751C0.69801 5.34177 1.05515 5.06711 1.47083 4.92686L15.2537 0.236573C15.6035 0.116279 15.9801 0.0966593 16.3405 0.179948C16.7009 0.263238 17.0307 0.446087 17.2923 0.707664C17.5539 0.969242 17.7367 1.29903 17.82 1.65946C17.9033 2.01989 17.8837 2.39647 17.7634 2.74629L13.0783 16.5291C12.9499 16.9211 12.7005 17.2622 12.3659 17.5034C12.0314 17.7446 11.629 17.8734 11.2165 17.8714ZM15.6703 1.45543L1.88226 6.14057C1.73703 6.18959 1.61229 6.28563 1.52776 6.4135C1.44323 6.54136 1.40375 6.69376 1.41555 6.84658C1.42735 6.99941 1.48976 7.14394 1.59292 7.25731C1.69607 7.37068 1.83408 7.44643 1.98512 7.47257L7.87883 8.50115C8.27685 8.57252 8.64348 8.76405 8.92942 9.04999C9.21535 9.33592 9.40688 9.70255 9.47826 10.1006L10.5068 15.9943C10.533 16.1453 10.6087 16.2833 10.7221 16.3865C10.8355 16.4896 10.98 16.5521 11.1328 16.5639C11.2856 16.5757 11.438 16.5362 11.5659 16.4516C11.6938 16.3671 11.7898 16.2424 11.8388 16.0971L16.5445 2.32972C16.586 2.20788 16.5924 2.07689 16.5633 1.95156C16.5341 1.82624 16.4704 1.71159 16.3794 1.6206C16.2884 1.52961 16.1737 1.46591 16.0484 1.43672C15.9231 1.40753 15.7921 1.41401 15.6703 1.45543Z" fill="#252525"/>
    </g>
    <defs>
        <clipPath id="clip0_107_430">
            <rect width="18" height="18" fill="white"/>
        </clipPath>
    </defs>
</svg>
