<svg width="24" height="24" viewBox="0 0 22 28" fill="none" xmlns="http://www.w3.org/2000/svg">
    <path d="M11 4.66643C12.7166 4.66643 14.3629 5.34065 15.5768 6.54078C16.7906 7.7409 17.4725 9.36863 17.4725 11.0659C17.4725 13.6911 18.006 15.6569 18.6978 17.1025C19.5817 18.9496 20.0236 19.8731 19.999 20.084C19.9704 20.3302 19.9338 20.398 19.7519 20.5417C19.5959 20.665 18.8203 20.665 17.269 20.665H4.73099C3.17966 20.665 2.404 20.665 2.24808 20.5417C2.06619 20.398 2.02964 20.3302 2.00097 20.084C1.97639 19.8731 2.41833 18.9496 3.30222 17.1025C3.99402 15.6569 4.52751 13.6911 4.52751 11.0659C4.52751 9.36863 5.20943 7.7409 6.42325 6.54078C7.63708 5.34065 9.28335 4.66643 11 4.66643ZM11 4.66643V2M7.82847 24.6647C8.67494 25.4956 9.78689 26 11.0048 26C12.2226 26 13.3345 25.4956 14.1811 24.6647" stroke="#4CBCD1" stroke-width="2.5" stroke-linecap="round" stroke-linejoin="round"/>
</svg>
