<svg width="24" height="24" viewBox="0 0 18 16" fill="none" xmlns="http://www.w3.org/2000/svg">
    <path fill-rule="evenodd" clip-rule="evenodd" d="M13.6782 2.492C13.957 2.24143 14.3298 2.10572 14.7145 2.11473C15.0992 2.12374 15.4644 2.27672 15.7297 2.54003C15.9951 2.80333 16.1388 3.15539 16.1292 3.51876C16.1197 3.88213 15.9577 4.22703 15.6789 4.4776L5.7114 13.4579L3.1428 13.7766L4.1958 10.9954L13.6773 2.49285L13.6782 2.492ZM17.0307 1.3683C16.4367 0.779449 15.6195 0.437267 14.7586 0.416868C13.8977 0.39647 13.0634 0.699522 12.4389 1.2595L2.799 9.9023C2.69681 9.99389 2.61882 10.1069 2.5713 10.2321L0.951298 14.5135C0.899407 14.6507 0.885692 14.7981 0.911468 14.9417C0.937243 15.0853 1.00165 15.2202 1.0985 15.3335C1.19535 15.4468 1.3214 15.5347 1.46457 15.5888C1.60774 15.6429 1.76322 15.6613 1.9161 15.6423L6.2361 15.1069C6.42532 15.0836 6.60182 15.0041 6.7401 14.8799L16.92 5.7084C17.5438 5.14656 17.9059 4.37372 17.9265 3.55982C17.947 2.74593 17.6254 1.95764 17.0307 1.3683ZM10.8 13.95C10.5613 13.95 10.3324 14.0396 10.1636 14.199C9.99482 14.3584 9.9 14.5746 9.9 14.8C9.9 15.0254 9.99482 15.2416 10.1636 15.401C10.3324 15.5604 10.5613 15.65 10.8 15.65H16.2C16.4387 15.65 16.6676 15.5604 16.8364 15.401C17.0052 15.2416 17.1 15.0254 17.1 14.8C17.1 14.5746 17.0052 14.3584 16.8364 14.199C16.6676 14.0396 16.4387 13.95 16.2 13.95H10.8Z" fill="#4CBCD1"/>
</svg>
