<svg width="24" height="24" viewBox="0 0 24 22" fill="none" xmlns="http://www.w3.org/2000/svg">
    <path d="M18.75 0C19.0557 0 19.3421 0.13962 19.5303 0.3746L19.6048 0.48102L23.8548 7.481C24.0556 7.8118 24.0459 8.2249 23.8395 8.5435L23.7634 8.6459L12.7634 21.6459C12.3906 22.0865 11.7317 22.1159 11.3207 21.7341L11.2366 21.6459L0.236622 8.6459C-0.0133678 8.3505 -0.0681777 7.941 0.0860522 7.5941L0.145222 7.481L4.39522 0.48102C4.55388 0.21969 4.82182 0.04741 5.1204 0.00841999L5.25001 0H18.75ZM15.515 9H8.484L11.999 17.672L15.515 9ZM20.844 9H17.673L14.756 16.195L20.844 9ZM6.326 9H3.155L9.242 16.193L6.326 9ZM7.674 2H5.81101L2.775 7H6.245L7.674 2ZM14.246 2H9.753L8.324 7H15.675L14.246 2ZM18.188 2H16.325L17.754 7H21.224L18.188 2Z" fill="#4CBCD1"/>
</svg>
