<svg width="24" height="24" viewBox="0 0 20 20" fill="none" xmlns="http://www.w3.org/2000/svg">
    <g clip-path="url(#clip0_103_197)">
        <path fill-rule="evenodd" clip-rule="evenodd" d="M14.1993 13.0203C15.2261 11.7367 15.8401 10.1084 15.8401 8.33674C15.8401 4.19272 12.4807 0.833328 8.33673 0.833328C4.1927 0.833328 0.833313 4.19272 0.833313 8.33674C0.833313 12.4807 4.1927 15.8402 8.33673 15.8402C10.1084 15.8402 11.7366 15.2262 13.0203 14.1993L17.7434 18.9225C18.069 19.2481 18.5969 19.2481 18.9225 18.9225C19.2481 18.5969 19.2481 18.069 18.9225 17.7434L14.1993 13.0203ZM8.33673 14.1811C5.10898 14.1811 2.49237 11.5645 2.49237 8.33674C2.49237 5.10899 5.10898 2.49239 8.33673 2.49239C11.5645 2.49239 14.1811 5.10899 14.1811 8.33674C14.1811 11.5645 11.5645 14.1811 8.33673 14.1811Z" fill="#0F0F0F"/>
    </g>
    <defs>
        <clipPath id="clip0_103_197">
            <rect width="20" height="20" fill="white"/>
        </clipPath>
    </defs>
</svg>
