<svg width="24" height="24" viewBox="0 0 23 23" fill="none" xmlns="http://www.w3.org/2000/svg">
    <g clip-path="url(#clip0_95_220)">
        <path fill-rule="evenodd" clip-rule="evenodd" d="M11.5 7.59375C9.34265 7.59375 7.59375 9.34264 7.59375 11.5C7.59375 13.6574 9.34265 15.4062 11.5 15.4062C13.6574 15.4062 15.4062 13.6574 15.4062 11.5C15.4062 9.34264 13.6574 7.59375 11.5 7.59375ZM9.15625 11.5C9.15625 10.2056 10.2056 9.15625 11.5 9.15625C12.7944 9.15625 13.8437 10.2056 13.8437 11.5C13.8437 12.7944 12.7944 13.8437 11.5 13.8437C10.2056 13.8437 9.15625 12.7944 9.15625 11.5Z" fill="#9A9C9D"/>
        <path fill-rule="evenodd" clip-rule="evenodd" d="M11.4737 0.302063C11.0108 0.302053 10.6242 0.302053 10.3069 0.323699C9.97658 0.34624 9.66461 0.394824 9.36212 0.520115C8.66022 0.810855 8.10255 1.36851 7.81181 2.07042C7.66046 2.43583 7.61947 2.82094 7.60381 3.23952C7.59123 3.57601 7.42142 3.85676 7.1708 4.00145C6.9202 4.14614 6.59216 4.15282 6.29446 3.99548C5.92413 3.79974 5.57012 3.64268 5.17797 3.59105C4.42474 3.49189 3.66296 3.69601 3.06022 4.15851C2.80047 4.35782 2.60239 4.60373 2.41772 4.87852C2.24031 5.14249 2.04707 5.47722 1.81558 5.87818L1.78928 5.92374C1.55778 6.32469 1.36453 6.6594 1.22463 6.94501C1.07899 7.24234 0.965063 7.53684 0.922324 7.86145C0.823157 8.61469 1.02728 9.37646 1.48977 9.97925C1.73052 10.2929 2.04349 10.521 2.39812 10.7438C2.6833 10.923 2.84156 11.2105 2.84154 11.5C2.84153 11.7894 2.68327 12.0769 2.39812 12.256C2.04345 12.4788 1.73045 12.707 1.48968 13.0207C1.02718 13.6234 0.823063 14.3852 0.92222 15.1384C0.964959 15.463 1.07889 15.7576 1.22452 16.0549C1.36443 16.3405 1.55768 16.6752 1.78917 17.0761L1.81548 17.1217C2.04697 17.5227 2.24021 17.8574 2.41762 18.1213C2.60228 18.3961 2.80037 18.6421 3.06012 18.8413C3.66286 19.3038 4.42464 19.508 5.17787 19.4088C5.56999 19.3572 5.92398 19.2002 6.29429 19.0045C6.59203 18.8471 6.92012 18.8537 7.17075 18.9985C7.4214 19.1432 7.59123 19.4239 7.60381 19.7605C7.61947 20.179 7.66047 20.5641 7.81181 20.9296C8.10255 21.6314 8.66022 22.1891 9.36212 22.4799C9.66461 22.6052 9.97658 22.6537 10.3069 22.6762C10.6242 22.6979 11.0108 22.6979 11.4737 22.6979H11.5263C11.9893 22.6979 12.3758 22.6979 12.6931 22.6762C13.0235 22.6537 13.3354 22.6052 13.6379 22.4799C14.3398 22.1891 14.8975 21.6314 15.1883 20.9296C15.3396 20.5641 15.3805 20.179 15.3962 19.7604C15.4088 19.4239 15.5786 19.1432 15.8292 18.9984C16.0798 18.8537 16.4079 18.8471 16.7056 19.0044C17.076 19.2001 17.4299 19.3572 17.8221 19.4087C18.5753 19.5079 19.3371 19.3038 19.9398 18.8413C20.1996 18.642 20.3976 18.3961 20.5823 18.1213C20.7597 17.8574 20.9529 17.5227 21.1844 17.1217L21.2108 17.0761C21.4422 16.6752 21.6355 16.3404 21.7754 16.0548C21.9211 15.7575 22.0349 15.463 22.0777 15.1384C22.1769 14.3851 21.9727 13.6233 21.5102 13.0206C21.2695 12.7069 20.9565 12.4788 20.6019 12.256C20.3167 12.0769 20.1585 11.7894 20.1585 11.4999C20.1585 11.2105 20.3167 10.9231 20.6018 10.7439C20.9566 10.5211 21.2696 10.2931 21.5103 9.97925C21.9728 9.37653 22.177 8.61476 22.0778 7.86152C22.035 7.53692 21.9212 7.24242 21.7755 6.94508C21.6356 6.65949 21.4424 6.3248 21.2109 5.92389L21.1846 5.87829C20.953 5.47732 20.7598 5.14256 20.5824 4.87859C20.3977 4.6038 20.1997 4.3579 19.9399 4.15857C19.3372 3.69608 18.5754 3.49196 17.8221 3.59113C17.43 3.64275 17.0761 3.79979 16.7058 3.99552C16.408 4.15289 16.0799 4.14619 15.8293 4.00148C15.5787 3.85678 15.4088 3.57599 15.3962 3.23947C15.3805 2.8209 15.3396 2.43581 15.1883 2.07042C14.8975 1.36851 14.3398 0.810855 13.6379 0.520115C13.3354 0.394824 13.0235 0.34624 12.6931 0.323699C12.3758 0.302053 11.9893 0.302053 11.5263 0.302063H11.4737ZM9.96002 1.96368C10.0404 1.93039 10.1625 1.89969 10.4133 1.88257C10.6711 1.86499 11.004 1.86456 11.5 1.86456C11.9961 1.86456 12.329 1.86499 12.5867 1.88257C12.8375 1.89969 12.9596 1.93039 13.0399 1.96368C13.359 2.09583 13.6125 2.34931 13.7446 2.66837C13.7864 2.769 13.8209 2.92589 13.8348 3.29787C13.8656 4.12326 14.2917 4.91799 15.048 5.35465C15.8043 5.79131 16.7056 5.7629 17.4359 5.37694C17.7649 5.203 17.9181 5.15448 18.0261 5.14026C18.3685 5.09519 18.7147 5.18797 18.9887 5.39819C19.0577 5.45115 19.1453 5.54153 19.2855 5.75015C19.4297 5.96459 19.5965 6.25269 19.8445 6.68227C20.0925 7.11187 20.2587 7.40038 20.3723 7.63241C20.4828 7.85813 20.5173 7.97922 20.5287 8.06547C20.5738 8.40784 20.481 8.75411 20.2708 9.02808C20.2044 9.11451 20.0859 9.22289 19.7705 9.42092C19.0713 9.8604 18.5961 10.6266 18.596 11.4999C18.596 12.3732 19.0712 13.1396 19.7705 13.579C20.0858 13.7771 20.2043 13.8854 20.2706 13.9719C20.4809 14.2458 20.5737 14.5921 20.5286 14.9345C20.5172 15.0207 20.4827 15.1418 20.3722 15.3675C20.2586 15.5995 20.0924 15.888 19.8444 16.3176C19.5964 16.7472 19.4296 17.0353 19.2854 17.2498C19.1452 17.4583 19.0576 17.5487 18.9886 17.6016C18.7146 17.812 18.3684 17.9047 18.026 17.8597C17.918 17.8454 17.7648 17.7969 17.4358 17.623C16.7055 17.237 15.8042 17.2086 15.0478 17.6453C14.2917 18.082 13.8656 18.8766 13.8348 19.7021C13.8209 20.074 13.7864 20.2309 13.7446 20.3316C13.6125 20.6506 13.359 20.9041 13.0399 21.0363C12.9596 21.0696 12.8375 21.1003 12.5867 21.1174C12.329 21.135 11.9961 21.1354 11.5 21.1354C11.004 21.1354 10.6711 21.135 10.4133 21.1174C10.1625 21.1003 10.0404 21.0696 9.96002 21.0363C9.64106 20.9041 9.38753 20.6506 9.25538 20.3316C9.21369 20.2309 9.17914 20.074 9.16522 19.7021C9.13436 18.8768 8.70832 18.082 7.952 17.6453C7.19569 17.2086 6.29442 17.2371 5.56417 17.623C5.23507 17.797 5.08193 17.8455 4.97393 17.8597C4.63154 17.9048 4.28528 17.812 4.01131 17.6017C3.94229 17.5488 3.85466 17.4584 3.71446 17.2498C3.57034 17.0354 3.40352 16.7473 3.1555 16.3177C2.90747 15.8881 2.74139 15.5996 2.62773 15.3676C2.51717 15.1419 2.48271 15.0207 2.47136 14.9345C2.42628 14.5921 2.51906 14.2458 2.72929 13.9719C2.79561 13.8855 2.9142 13.7771 3.2294 13.579C3.92875 13.1397 4.404 12.3733 4.40404 11.5001C4.40409 10.6266 3.92882 9.86029 3.22941 9.42081C2.91428 9.22278 2.7957 9.11443 2.72939 9.02801C2.51917 8.75404 2.42639 8.40778 2.47146 8.0654C2.48281 7.97916 2.51727 7.85805 2.62783 7.63234C2.74149 7.4003 2.90757 7.11179 3.1556 6.6822C3.40363 6.25262 3.57044 5.96452 3.71456 5.75007C3.85476 5.54147 3.9424 5.45107 4.01141 5.39813C4.28539 5.1879 4.63165 5.09512 4.97402 5.14019C5.08203 5.15441 5.23519 5.20293 5.56432 5.3769C6.29453 5.76284 7.19576 5.79125 7.95204 5.35462C8.70833 4.91798 9.13436 4.12328 9.16522 3.29792C9.17914 2.92591 9.21369 2.76901 9.25538 2.66837C9.38753 2.34931 9.64106 2.09583 9.96002 1.96368Z" fill="#9A9C9D"/>
    </g>
    <defs>
        <clipPath id="clip0_95_220">
            <rect width="23" height="23" fill="white"/>
        </clipPath>
    </defs>
</svg>
