<svg width="24" height="24" viewBox="0 0 21 15" fill="none" xmlns="http://www.w3.org/2000/svg">
    <path d="M14.1259 3.86754C16.1286 5.87368 16.1286 9.12631 14.1259 11.1325M6.87403 11.1324C4.87145 9.12631 4.87145 5.87368 6.87403 3.86751M4.4567 13.5541C1.11909 10.2105 1.11909 4.78949 4.4567 1.44589M16.5433 1.44593C19.8809 4.78953 19.8809 10.2106 16.5433 13.5541M12.2093 7.49999C12.2093 8.44573 11.4441 9.21236 10.5 9.21236C9.55596 9.21236 8.7907 8.44573 8.7907 7.49999C8.7907 6.55434 9.55596 5.78763 10.5 5.78763C11.4441 5.78763 12.2093 6.55434 12.2093 7.49999Z" stroke="#FEFEFE" stroke-width="1.5" stroke-linecap="round" stroke-linejoin="round"/>
</svg>
