<svg width="24" height="24" viewBox="0 0 30 28" fill="none" xmlns="http://www.w3.org/2000/svg">
    <path d="M2 26H28" stroke="#4CBCD1" stroke-width="2.5" stroke-linecap="round" stroke-linejoin="round"/>
    <path d="M5.90001 26V8.3C5.90001 8.22043 5.92741 8.14413 5.97617 8.08787C6.02492 8.03161 6.09106 8 6.16001 8H9.54001C9.60897 8 9.6751 8.03161 9.72386 8.08787C9.77262 8.14413 9.80001 8.22043 9.80001 8.3V26" stroke="#4CBCD1" stroke-width="2.5" stroke-linecap="round" stroke-linejoin="round"/>
    <path d="M13.7 26V2.405C13.7 2.18 13.817 2 13.96 2H17.34C17.483 2 17.6 2.18 17.6 2.405V26" stroke="#4CBCD1" stroke-width="2.5" stroke-linecap="round" stroke-linejoin="round"/>
    <path d="M21.5 26V12.725C21.5 12.605 21.617 12.5 21.76 12.5H25.14C25.283 12.5 25.4 12.605 25.4 12.725V26" stroke="#4CBCD1" stroke-width="2.5" stroke-linecap="round" stroke-linejoin="round"/>
</svg>
