<svg width="24" height="24" viewBox="0 0 24 22" fill="none" xmlns="http://www.w3.org/2000/svg">
    <path fill-rule="evenodd" clip-rule="evenodd" d="M12.606 3.59776C11.548 2.73507 10.2174 2.25781 8.84061 2.24713C7.46378 2.23645 6.12566 2.69302 5.05383 3.53918C3.98199 4.38535 3.24261 5.56888 2.96141 6.8885C2.68021 8.20813 2.87456 9.58238 3.5114 10.7776C3.71474 11.1581 3.69507 11.5643 3.67867 11.7569C3.65324 12.0106 3.60718 12.2618 3.54092 12.5083C3.44727 12.8633 3.33784 13.2142 3.21295 13.5599C3.63931 13.4154 4.06567 13.287 4.44284 13.2019C4.73967 13.1354 5.05129 13.1872 5.30916 13.3457C5.56702 13.5042 5.75001 13.7565 5.81785 14.0472C5.8857 14.3378 5.83285 14.6429 5.67094 14.8953C5.50902 15.1478 5.2513 15.3269 4.95447 15.3934C4.39692 15.5186 3.58192 15.8076 2.85874 16.0902C2.47295 16.2419 2.08972 16.3998 1.70921 16.5638L1.64033 16.5927L1.62394 16.6007L1.61902 16.6023C1.4064 16.696 1.16969 16.7241 0.940377 16.6828C0.711064 16.6415 0.500023 16.5329 0.335335 16.3713C0.170648 16.2097 0.0601236 16.0029 0.0184688 15.7783C-0.023186 15.5537 0.00600402 15.322 0.102155 15.114V15.1124L0.105434 15.106L0.118553 15.0771L0.167749 14.9647C0.417995 14.4106 0.653124 13.8501 0.872884 13.2837C1.05819 12.8021 1.21889 12.3333 1.31564 11.964C1.35008 11.8195 1.3714 11.712 1.38288 11.6349C0.551803 9.9737 0.328028 8.08363 0.748926 6.28035C1.16982 4.47707 2.20991 2.86977 3.69548 1.72688C5.18105 0.58399 7.02215 -0.0252876 8.9113 0.00080451C10.8005 0.0268967 12.6233 0.686779 14.0753 1.87024C14.3093 2.061 14.4563 2.33495 14.484 2.63183C14.5117 2.9287 14.4177 3.22418 14.2229 3.45326C14.0281 3.68235 13.7482 3.82627 13.445 3.85337C13.1418 3.88046 12.84 3.78852 12.606 3.59776Z" fill="#4CBCD1"/>
    <path fill-rule="evenodd" clip-rule="evenodd" d="M6.78125 13.303C6.78222 12.0764 7.0656 10.8658 7.61031 9.76119C8.15502 8.65658 8.94706 7.68641 9.92752 6.9228C10.908 6.15919 12.0517 5.62179 13.2735 5.35057C14.4953 5.07934 15.7639 5.08126 16.9849 5.35619C18.2058 5.63112 19.3478 6.17198 20.3259 6.93855C21.3039 7.70513 22.0929 8.6777 22.6341 9.78395C23.1753 10.8902 23.4548 12.1017 23.4519 13.3283C23.449 14.5549 23.1637 15.765 22.6173 16.8688C22.6271 16.9218 22.6419 16.9924 22.6648 17.0824C22.7468 17.3986 22.8944 17.8096 23.0715 18.2608C23.2142 18.6188 23.3634 18.972 23.5012 19.2979L23.5996 19.5323C23.6799 19.7218 23.7537 19.9016 23.8144 20.0557C23.8636 20.1874 23.9357 20.3768 23.9734 20.547C24.0113 20.7224 24.0086 20.9039 23.9657 21.0782C23.9228 21.2524 23.8407 21.4151 23.7253 21.5544C23.61 21.6936 23.4643 21.8059 23.299 21.883C23.1337 21.9601 22.9529 22 22.7698 22C22.4927 22 22.2254 21.9358 22.0368 21.8844C21.8184 21.8217 21.6028 21.75 21.3907 21.6693C21.0824 21.5537 20.7315 21.4092 20.3969 21.2711L20.0427 21.1266C19.6647 20.9663 19.2789 20.8243 18.8866 20.7011C18.8351 20.6858 18.7832 20.6719 18.7308 20.6594C17.46 21.2581 16.0547 21.5313 14.6466 21.4535C13.2385 21.3756 11.8736 20.9492 10.6797 20.2142C9.48572 19.4792 8.5018 18.4596 7.81999 17.2509C7.13818 16.0422 6.78078 14.6838 6.78125 13.303ZM9.24103 13.303C9.24179 12.4317 9.44471 11.572 9.83445 10.7887C10.2242 10.0054 10.7906 9.31903 11.4909 8.78137C12.1911 8.24371 13.007 7.86881 13.8769 7.68497C14.7468 7.50114 15.648 7.51317 16.5124 7.72016C17.3769 7.92714 18.182 8.32368 18.8671 8.87983C19.5521 9.43599 20.0992 10.1372 20.467 10.9306C20.8347 11.724 21.0136 12.5889 20.9901 13.4598C20.9666 14.3308 20.7414 15.1852 20.3313 15.9585C20.128 16.3422 20.1345 16.7372 20.1509 16.9443C20.1673 17.1931 20.2215 17.4468 20.2821 17.6764C20.3707 18.02 20.4986 18.3957 20.6363 18.7617C20.2909 18.6222 19.9391 18.4984 19.5819 18.3908C19.345 18.3193 19.1018 18.2693 18.8555 18.2415C18.504 18.1985 18.1473 18.2565 17.8289 18.4085C16.9331 18.8649 15.9323 19.0875 14.9231 19.055C13.9138 19.0224 12.9302 18.7357 12.067 18.2226C11.2039 17.7095 10.4904 16.9872 9.99539 16.1255C9.50038 15.2637 9.24057 14.2917 9.24103 13.303ZM22.6058 16.7709L22.6042 16.7516V16.7725L22.6058 16.7709Z" fill="#4CBCD1"/>
</svg>

